HIERARCHY
ROOT Hips
{
	OFFSET 0.000000 0.000000 0.000000
	CHANNELS 6 Xposition Yposition Zposition Zrotation Yrotation Xrotation 
	JOINT LHipJoint
	{
		OFFSET 0.000000 0.000000 0.000000
		CHANNELS 3 Zrotation Yrotation Xrotation
		JOINT LeftUpLeg
		{
			OFFSET 1.363060 -1.794630 0.839290
			CHANNELS 3 Zrotation Yrotation Xrotation
			JOINT LeftLeg
			{
				OFFSET 2.448110 -6.726130 0.000000
				CHANNELS 3 Zrotation Yrotation Xrotation
				JOINT LeftFoot
				{
					OFFSET 2.562200 -7.039590 0.000000
					CHANNELS 3 Zrotation Yrotation Xrotation
					JOINT LeftToeBase
					{
						OFFSET 0.157640 -0.433110 2.322550
						CHANNELS 3 Zrotation Yrotation Xrotation
						End Site
						{
							OFFSET 0.000000 0.000000 0.000000
						}
					}
				}
			}
		}
	}
	JOINT RHipJoint
	{
		OFFSET 0.000000 0.000000 0.000000
		CHANNELS 3 Zrotation Yrotation Xrotation
		JOINT RightUpLeg
		{
			OFFSET -1.305520 -1.794630 0.839290
			CHANNELS 3 Zrotation Yrotation Xrotation
			JOINT RightLeg
			{
				OFFSET -2.542530 -6.985550 0.000000
				CHANNELS 3 Zrotation Yrotation Xrotation
				JOINT RightFoot
				{
					OFFSET -2.568260 -7.056230 0.000000
					CHANNELS 3 Zrotation Yrotation Xrotation
					JOINT RightToeBase
					{
						OFFSET -0.164730 -0.452590 2.363150
						CHANNELS 3 Zrotation Yrotation Xrotation
						End Site
						{
							OFFSET 0.000000 0.000000 0.000000
						}
					}
				}
			}
		}
	}
	JOINT LowerBack
	{
		OFFSET 0.000000 0.000000 0.000000
		CHANNELS 3 Zrotation Yrotation Xrotation
		JOINT Spine
		{
			OFFSET 0.028270 2.035590 -0.193380
			CHANNELS 3 Zrotation Yrotation Xrotation
			JOINT Spine1
			{
				OFFSET 0.056720 2.048850 -0.042750
				CHANNELS 3 Zrotation Yrotation Xrotation
				JOINT Neck
				{
					OFFSET 0.000000 0.000000 0.000000
					CHANNELS 3 Zrotation Yrotation Xrotation
					JOINT Neck1
					{
						OFFSET -0.054170 1.746240 0.172020
						CHANNELS 3 Zrotation Yrotation Xrotation
						JOINT Head
						{
							OFFSET 0.104070 1.761360 -0.123970
							CHANNELS 3 Zrotation Yrotation Xrotation
							End Site
							{
								OFFSET 0.000000 0.000000 0.000000
							}
						}
					}
				}
				JOINT LeftShoulder
				{
					OFFSET 0.000000 0.000000 0.000000
					CHANNELS 3 Zrotation Yrotation Xrotation
					JOINT LeftArm
					{
						OFFSET 3.362410 1.200890 -0.311210
						CHANNELS 3 Zrotation Yrotation Xrotation
						JOINT LeftForeArm
						{
							OFFSET 4.983000 -0.000000 -0.000000
							CHANNELS 3 Zrotation Yrotation Xrotation
							JOINT LeftHand
							{
								OFFSET 3.483560 -0.000000 -0.000000
								CHANNELS 3 Zrotation Yrotation Xrotation
								JOINT LeftFingerBase
								{
									OFFSET 0.000000 0.000000 0.000000
									CHANNELS 3 Zrotation Yrotation Xrotation
									JOINT LeftHandIndex1
									{
										OFFSET 0.715260 -0.000000 -0.000000
										CHANNELS 3 Zrotation Yrotation Xrotation
										End Site
										{
											OFFSET 0.000000 0.000000 0.000000
										}
									}
								}
								JOINT LThumb
								{
									OFFSET 0.000000 0.000000 0.000000
									CHANNELS 3 Zrotation Yrotation Xrotation
									End Site
									{
										OFFSET 0.000000 0.000000 0.000000
									}
								}
							}
						}
					}
				}
				JOINT RightShoulder
				{
					OFFSET 0.000000 0.000000 0.000000
					CHANNELS 3 Zrotation Yrotation Xrotation
					JOINT RightArm
					{
						OFFSET -3.136600 1.374050 -0.404650
						CHANNELS 3 Zrotation Yrotation Xrotation
						JOINT RightForeArm
						{
							OFFSET -5.241900 -0.000000 -0.000000
							CHANNELS 3 Zrotation Yrotation Xrotation
							JOINT RightHand
							{
								OFFSET -3.444170 -0.000000 -0.000000
								CHANNELS 3 Zrotation Yrotation Xrotation
								JOINT RightFingerBase
								{
									OFFSET 0.000000 0.000000 0.000000
									CHANNELS 3 Zrotation Yrotation Xrotation
									JOINT RightHandIndex1
									{
										OFFSET -0.622530 -0.000000 -0.000000
										CHANNELS 3 Zrotation Yrotation Xrotation
										End Site
										{
											OFFSET 0.000000 0.000000 0.000000
										}
									}
								}
								JOINT RThumb
								{
									OFFSET 0.000000 0.000000 0.000000
									CHANNELS 3 Zrotation Yrotation Xrotation
									End Site
									{
										OFFSET 0.000000 0.000000 0.000000
									}
								}
							}
						}
					}
				}
			}
		}
	}
}
MOTION
Frames: 8
Frame Time: 0.008333
-1.760336 16.778475 -0.905628 -89.157613 88.740912 -77.461207 -11.465733 2.875441 -0.099314 -8.869835 -0.801968 0.448417 -1.074741 1.553712 29.498927 0.975662 5.403586 -6.614000 0.012401 -0.000000 -63.541700 7.638972 -0.505418 3.992259 3.641771 11.658487 -34.565473 2.991992 -0.470842 10.295304 1.801020 12.513660 12.155673 3.695800 -0.000000 -59.983000 4.943791 -3.430534 -3.130814 0.170513 -3.987852 -3.497191 -7.561314 -4.054329 0.380310 9.964459 -6.385406 -7.087267 -4.668412 -0.360077 0.120517 0.000000 0.000000 0.000000 -5.601585 3.359878 1.957035 -62.776413 -9.647359 11.628131 -2.851615 -37.428265 -0.010530 5.517566 1.024153 0.045704 -0.098419 0.109977 0.000000 0.000000 0.000000 0.000000 0.000000 0.000000 0.000000 20.526842 -5.444405 1.404391 64.636460 -1.251942 -14.356335 4.030251 9.341921 0.005146 -1.300176 3.070059 -0.038181 0.109667 -0.051415 -0.000000 0.000000 0.000000 0.000000 0.000000 0.000000 0.000000 
-1.614484 16.795926 -0.904086 -100.505403 88.447821 -88.845120 -11.771008 2.965800 -0.150228 -8.250546 0.038342 -0.705013 -0.875726 1.739660 31.702996 1.026965 5.988523 -5.113179 0.178200 -0.000000 -64.966800 7.529328 -0.602333 3.884451 4.387026 11.241107 -34.268682 3.042346 -0.518722 10.943130 1.795515 12.372833 12.105205 3.626300 0.000000 -58.185600 5.260836 -3.388077 -3.064736 0.216236 -3.963673 -3.504068 -7.542141 -4.029465 0.361266 9.972363 -6.304705 -7.144170 -4.668782 -0.359779 0.106468 0.000000 0.000000 0.000000 -5.633749 3.530951 1.946376 -63.575132 -8.933588 11.506189 -2.826988 -36.672132 -0.010443 5.610880 1.102878 0.050546 -0.093812 0.105598 0.000000 0.000000 0.000000 0.000000 0.000000 0.000000 0.000000 20.507211 -5.303681 1.412823 64.725671 -0.785198 -14.102391 4.036018 9.399756 0.005170 -1.241602 3.072141 -0.036573 0.109241 -0.052529 -0.000000 0.000000 0.000000 0.000000 0.000000 0.000000 0.000000 
-1.471846 16.814227 -0.900652 -109.571800 88.093234 -97.928839 -12.030182 3.042956 -0.213129 -7.672319 0.948038 -1.996268 -0.670348 1.916090 33.995726 1.117331 6.785539 -3.552535 0.381599 -0.000000 -65.455200 7.459932 -0.681106 3.791929 5.070941 10.820100 -33.955640 3.092728 -0.552698 11.536471 1.789102 12.216133 11.828753 3.510000 0.000000 -56.277600 5.544683 -3.345575 -3.002840 0.257782 -3.937971 -3.509262 -7.530594 -4.004029 0.344939 10.012915 -6.237988 -7.201465 -4.668728 -0.359475 0.092372 0.000000 0.000000 0.000000 -5.615195 3.675127 1.941384 -64.355246 -8.236105 11.434978 -2.803252 -35.876422 -0.010313 5.671004 1.210392 0.056589 -0.089295 0.101207 0.000000 0.000000 0.000000 0.000000 0.000000 0.000000 0.000000 20.522150 -5.174403 1.421556 64.845750 -0.304416 -13.813189 4.036889 9.521344 0.005210 -1.165342 3.081647 -0.034665 0.108504 -0.053720 -0.000000 0.000000 0.000000 0.000000 0.000000 0.000000 0.000000 
-1.332557 16.833265 -0.895627 -117.229356 87.686481 -105.578548 -12.251052 3.097514 -0.285678 -7.151271 1.897462 -3.416412 -0.462221 2.079219 36.360017 1.251804 7.831477 -1.987611 0.638600 -0.000000 -64.751100 7.417809 -0.747940 3.719946 5.678575 10.422073 -33.634303 3.140399 -0.572480 12.060513 1.778277 12.015356 11.375562 3.349200 0.000000 -54.363400 5.791414 -3.305415 -2.951124 0.293695 -3.912871 -3.513870 -7.525942 -3.979830 0.332402 10.080329 -6.185207 -7.260385 -4.668378 -0.359164 0.077880 0.000000 0.000000 0.000000 -5.562923 3.798893 1.942862 -65.099473 -7.568664 11.435500 -2.782280 -35.052782 -0.010124 5.686499 1.346148 0.063737 -0.085011 0.096856 0.000000 0.000000 0.000000 0.000000 0.000000 0.000000 0.000000 20.567135 -5.056748 1.430322 64.992958 0.187190 -13.477068 4.032663 9.713727 0.005267 -1.079749 3.100470 -0.032456 0.107499 -0.054992 -0.000000 0.000000 0.000000 0.000000 0.000000 0.000000 0.000000 
-1.196503 16.852941 -0.889577 -123.895717 87.226315 -112.202359 -12.440510 3.123043 -0.363237 -6.697544 2.856846 -4.962051 -0.257437 2.226660 38.778254 1.430907 9.137644 -0.491305 0.962800 0.000000 -62.633100 7.391970 -0.808016 3.675149 6.203504 10.072973 -33.317987 3.183404 -0.577673 12.500818 1.759361 11.738633 10.802284 3.147000 0.000000 -52.558000 6.005060 -3.267080 -2.920054 0.324497 -3.888613 -3.520623 -7.526907 -3.957028 0.321530 10.164816 -6.142389 -7.318643 -4.667598 -0.358870 0.063713 0.000000 0.000000 0.000000 -5.495656 3.894664 1.951381 -65.791761 -6.921067 11.516920 -2.764181 -34.226370 -0.009869 5.647749 1.511146 0.071689 -0.080973 0.092547 0.000000 0.000000 0.000000 0.000000 0.000000 0.000000 0.000000 20.629867 -4.946843 1.440195 65.167088 0.684265 -13.121050 4.023801 9.967063 0.005356 -0.987191 3.138694 -0.030245 0.106262 -0.056463 -0.000000 0.000000 0.000000 0.000000 0.000000 0.000000 0.000000 
-1.064045 16.873211 -0.882602 -129.829962 86.723471 -118.064176 -12.596422 3.118099 -0.445603 -6.342038 3.792743 -6.599152 -0.065120 2.359191 41.212852 1.651675 10.697873 0.855998 1.360900 -0.000000 -58.944100 7.381163 -0.860107 3.653127 6.632876 9.773869 -33.006894 3.217407 -0.570266 12.859979 1.729608 11.376587 10.156082 2.912800 -0.000000 -50.975000 6.173642 -3.230499 -2.902537 0.347369 -3.863798 -3.528294 -7.533078 -3.934132 0.311531 10.263359 -6.107601 -7.376706 -4.666986 -0.358608 0.049524 0.000000 0.000000 0.000000 -5.421810 3.966531 1.967524 -66.421151 -6.303425 11.687437 -2.750597 -33.406658 -0.009540 5.546168 1.700624 0.079846 -0.077265 0.088317 0.000000 0.000000 0.000000 0.000000 0.000000 0.000000 0.000000 20.710898 -4.842043 1.451726 65.362035 1.184419 -12.720305 4.009455 10.289379 0.005467 -0.898222 3.194030 -0.028232 0.104837 -0.058121 -0.000000 0.000000 0.000000 0.000000 0.000000 0.000000 0.000000 
-0.935072 16.894041 -0.875212 -135.139380 86.175332 -123.268876 -12.722708 3.083649 -0.530343 -6.088014 4.684200 -8.313637 0.106495 2.479096 43.636062 1.903891 12.456355 1.955380 1.817600 0.000000 -53.620200 7.379242 -0.906365 3.654596 6.970011 9.535772 -32.706999 3.240619 -0.551051 13.133836 1.685989 10.907601 9.485253 2.652200 -0.000000 -49.691700 6.303663 -3.194233 -2.900861 0.363536 -3.837586 -3.537677 -7.542993 -3.910245 0.301911 10.367560 -6.076167 -7.434700 -4.666429 -0.358358 0.035219 0.000000 0.000000 0.000000 -5.356278 4.022887 1.991169 -66.980255 -5.722609 11.956753 -2.742226 -32.603182 -0.009141 5.377915 1.910317 0.087508 -0.073930 0.084206 0.000000 0.000000 0.000000 0.000000 0.000000 0.000000 0.000000 20.800476 -4.736639 1.464789 65.573242 1.682298 -12.274746 3.990023 10.679988 0.005595 -0.818474 3.267956 -0.026518 0.103293 -0.059993 -0.000000 0.000000 0.000000 0.000000 0.000000 0.000000 0.000000 
-0.809752 16.915429 -0.867703 -139.897825 85.584294 -127.898106 -12.819765 3.024295 -0.617415 -5.940621 5.512931 -10.073376 0.252104 2.590213 46.000326 2.174786 14.337454 2.748749 2.303300 0.000000 -47.053899 7.384747 -0.946156 3.673548 7.218737 9.355521 -32.412651 3.250772 -0.522120 13.327722 1.626327 10.325016 8.825115 2.372500 0.000000 -48.751700 6.396249 -3.156761 -2.907255 0.372998 -3.808064 -3.548424 -7.555509 -3.883509 0.288527 10.470801 -6.043905 -7.489191 -4.666147 -0.358151 0.021621 0.000000 0.000000 0.000000 -5.306443 4.050102 2.022530 -67.465057 -5.161940 12.309393 -2.738251 -31.838240 -0.008676 5.140958 2.136017 0.094176 -0.070895 0.080202 0.000000 0.000000 0.000000 0.000000 0.000000 0.000000 0.000000 20.891326 -4.626818 1.481423 65.796467 2.177120 -11.788171 3.965724 11.127967 0.005744 -0.751702 3.363603 -0.025202 0.101675 -0.062143 -0.000000 0.000000 0.000000 0.000000 0.000000 0.000000 0.000000 
